<svg width="700" height="700" viewBox="0 0 700 700" fill="none" xmlns="http://www.w3.org/2000/svg">
<path d="M288.279 283.127V258.674C279.791 257.33 271.217 256.594 262.624 256.471C179.43 256.293 105.776 310.206 80.7927 389.559C55.8095 468.913 85.2993 555.296 153.586 602.809C128.545 576.01 111.796 542.535 105.361 506.426C98.9255 470.317 103.079 433.117 117.32 399.317C131.56 365.516 155.28 336.56 185.615 315.943C215.95 295.326 251.604 283.93 288.273 283.13L288.279 283.127Z" fill="#25F4EE"/>
<path d="M292.891 560.118C339.405 560.055 377.639 523.411 379.676 476.941V62.257H455.433C453.888 53.5918 453.15 44.8017 453.23 36L349.609 36V450.284C347.886 496.99 309.56 533.986 262.824 534.061C248.857 533.943 235.119 530.508 222.739 524.041C230.763 535.157 241.299 544.219 253.491 550.489C265.682 556.758 279.182 560.058 292.891 560.118ZM596.936 202.955V179.906C569.054 179.917 541.791 171.689 518.57 156.257C538.926 179.922 566.435 196.314 596.936 202.955Z" fill="#25F4EE"/>
<path d="M518.57 156.257C495.694 130.209 483.083 96.7223 483.095 62.0544H455.434C459.006 81.2219 466.447 99.4603 477.302 115.657C488.157 131.853 502.199 145.667 518.57 156.257ZM262.624 360.091C243.224 360.19 224.414 366.771 209.184 378.789C193.954 390.806 183.179 407.57 178.571 426.415C173.963 445.26 175.787 465.105 183.754 482.794C191.72 500.483 205.371 515.001 222.537 524.041C213.152 511.082 207.531 495.782 206.297 479.829C205.062 463.877 208.262 447.894 215.542 433.646C222.822 419.398 233.899 407.439 247.549 399.092C261.199 390.745 276.891 386.334 292.891 386.346C301.59 386.46 310.227 387.814 318.543 390.367V284.931C310.051 283.658 301.478 282.988 292.891 282.927H288.279V363.097C279.919 360.854 271.276 359.842 262.624 360.091Z" fill="#FE2C55"/>
<path d="M596.935 202.954V283.127C545.32 283.026 495.044 266.688 453.23 236.426V447.076C453.008 552.187 367.735 637.282 262.624 637.282C223.586 637.353 185.488 625.308 153.586 602.809C179.6 630.789 213.438 650.287 250.691 658.763C287.945 667.239 326.888 664.299 362.447 650.327C398.006 636.356 428.533 611.999 450.052 580.43C471.572 548.862 483.086 511.544 483.094 473.339V263.286C525.049 293.348 575.386 309.473 627 309.384V206.154C616.895 206.124 606.82 205.052 596.935 202.954Z" fill="#FE2C55"/>
<path d="M453.23 447.076V236.427C495.171 266.516 545.518 282.644 597.136 282.525V202.355C566.641 195.915 539.067 179.736 518.57 156.257C502.199 145.667 488.158 131.853 477.302 115.657C466.447 99.4603 459.006 81.2219 455.434 62.0544H379.676V476.946C378.939 495.006 372.594 512.387 361.523 526.674C350.453 540.962 335.206 551.446 317.903 556.669C300.6 561.893 282.099 561.597 264.972 555.822C247.845 550.047 232.942 539.08 222.334 524.446C205.166 515.408 191.512 500.889 183.543 483.199C175.575 465.509 173.75 445.662 178.358 426.815C182.966 407.968 193.743 391.203 208.975 379.185C224.207 367.168 243.02 360.587 262.422 360.491C271.123 360.569 279.767 361.92 288.077 364.501V284.329C251.21 284.954 215.322 296.292 184.788 316.961C154.254 337.63 130.394 366.736 116.116 400.731C101.838 434.726 97.7595 472.141 104.378 508.414C110.996 544.687 128.026 578.25 153.39 605.012C185.605 626.77 223.757 638.041 262.624 637.283C367.736 637.283 453.008 552.187 453.23 447.076Z" fill="black"/>
</svg>
