<svg width="700" height="700" viewBox="0 0 700 700" fill="none" xmlns="http://www.w3.org/2000/svg">
<g clip-path="url(#clip0_1229_189)">
<path d="M99.2017 346.334C99.1894 390.78 110.803 434.179 132.886 472.431L97.0898 603.127L230.841 568.057C267.834 588.196 309.283 598.749 351.404 598.751H351.514C490.561 598.751 603.749 485.605 603.808 346.533C603.835 279.143 577.615 215.774 529.976 168.098C482.345 120.427 418.999 94.1591 351.504 94.1283C212.441 94.1283 99.2612 207.269 99.2038 346.334" fill="url(#paint0_linear_1229_189)"/>
<path d="M90.1939 346.252C90.1796 392.298 102.209 437.248 125.079 476.87L88 612.251L226.547 575.924C264.721 596.738 307.701 607.711 351.436 607.728H351.549C495.584 607.728 612.838 490.511 612.899 346.461C612.924 276.65 585.76 211.002 536.42 161.619C487.073 112.241 421.461 85.0287 351.549 85C207.488 85 90.2513 202.2 90.1939 346.252ZM172.702 470.046L167.528 461.835C145.782 427.257 134.304 387.299 134.32 346.269C134.367 226.536 231.81 129.124 351.631 129.124C409.657 129.149 464.189 151.769 505.205 192.809C546.219 233.854 568.787 288.415 568.773 346.445C568.72 466.177 471.275 563.601 351.549 563.601H351.463C312.478 563.581 274.245 553.112 240.902 533.328L232.967 528.622L150.75 550.178L172.702 470.044V470.046Z" fill="url(#paint1_linear_1229_189)"/>
<path d="M286.228 237.032C281.336 226.159 276.187 225.94 271.535 225.749C267.725 225.585 263.37 225.597 259.019 225.597C254.664 225.597 247.588 227.235 241.607 233.766C235.62 240.303 218.75 256.099 218.75 288.226C218.75 320.356 242.151 351.405 245.413 355.766C248.679 360.119 290.589 428.159 356.964 454.334C412.128 476.087 423.354 471.761 435.326 470.67C447.3 469.583 473.963 454.878 479.403 439.629C484.847 424.382 484.847 411.313 483.215 408.582C481.583 405.861 477.228 404.227 470.697 400.963C464.164 397.696 432.06 381.898 426.074 379.719C420.087 377.541 415.734 376.454 411.379 382.993C407.024 389.522 394.519 404.227 390.707 408.582C386.9 412.947 383.088 413.491 376.56 410.224C370.025 406.948 348.994 400.061 324.043 377.816C304.63 360.506 291.524 339.131 287.714 332.593C283.905 326.064 287.306 322.525 290.581 319.271C293.515 316.345 297.113 311.646 300.382 307.834C303.638 304.02 304.724 301.299 306.902 296.944C309.081 292.585 307.991 288.772 306.361 285.505C304.724 282.239 292.034 249.943 286.228 237.032Z" fill="white"/>
</g>
<defs>
<linearGradient id="paint0_linear_1229_189" x1="25433" y1="50994" x2="25433" y2="94.1283" gradientUnits="userSpaceOnUse">
<stop stop-color="#1FAF38"/>
<stop offset="1" stop-color="#60D669"/>
</linearGradient>
<linearGradient id="paint1_linear_1229_189" x1="26333" y1="52810.1" x2="26333" y2="85" gradientUnits="userSpaceOnUse">
<stop stop-color="#F9F9F9"/>
<stop offset="1" stop-color="white"/>
</linearGradient>
<clipPath id="clip0_1229_189">
<rect width="524.899" height="529" fill="white" transform="translate(88 85)"/>
</clipPath>
</defs>
</svg>
